<svg xmlns="http://www.w3.org/2000/svg" width="800" height="600" viewBox="0 0 800 600" fill="none">
  <defs>
    <linearGradient id="g" x1="0" y1="0" x2="800" y2="600" gradientUnits="userSpaceOnUse">
      <stop offset="0" stop-color="#58a6ff" stop-opacity="0.35" />
      <stop offset="0.55" stop-color="#0b1220" stop-opacity="0.0" />
      <stop offset="1" stop-color="#58a6ff" stop-opacity="0.18" />
    </linearGradient>
    <radialGradient id="r" cx="0" cy="0" r="1" gradientUnits="userSpaceOnUse" gradientTransform="translate(560 180) rotate(145) scale(420 320)">
      <stop offset="0" stop-color="#58a6ff" stop-opacity="0.25" />
      <stop offset="1" stop-color="#58a6ff" stop-opacity="0" />
    </radialGradient>
    <pattern id="p" width="40" height="40" patternUnits="userSpaceOnUse">
      <path d="M0 40V0H40" stroke="#58a6ff" stroke-opacity="0.08" stroke-width="1" />
    </pattern>
  </defs>
  <rect width="800" height="600" fill="#0b1220" />
  <rect width="800" height="600" fill="url(#p)" />
  <rect width="800" height="600" fill="url(#g)" />
  <rect width="800" height="600" fill="url(#r)" />
  <g opacity="0.7">
    <path d="M96 420C152 356 218 328 292 332C366 336 410 382 470 382C552 382 610 318 704 242" stroke="#58a6ff" stroke-opacity="0.22" stroke-width="3" />
    <path d="M104 454C168 386 242 356 322 362C402 368 448 420 518 418C604 416 664 350 724 292" stroke="#58a6ff" stroke-opacity="0.14" stroke-width="2" />
  </g>
  <rect x="56" y="56" width="688" height="488" rx="18" stroke="#ffffff" stroke-opacity="0.08" />
</svg>
